<svg xmlns="http://www.w3.org/2000/svg" width="1440" height="3840"><path d="M728,2107L422,1950L451,2275Z" fill="#85cdc2" stroke="#85cdc2" stroke-width="1.51"/><path d="M728,2107L666,1778L422,1950Z" fill="#84cec2" stroke="#84cec2" stroke-width="1.51"/><path d="M422,1950L166,2134L451,2275Z" fill="#92d2c1" stroke="#92d2c1" stroke-width="1.51"/><path d="M451,2275L868,2455L728,2107Z" fill="#73c5c8" stroke="#73c5c8" stroke-width="1.51"/><path d="M728,2107L842,1712L666,1778Z" fill="#7ccbc4" stroke="#7ccbc4" stroke-width="1.51"/><path d="M1157,2100L842,1712L728,2107Z" fill="#6ec3c9" stroke="#6ec3c9" stroke-width="1.51"/><path d="M166,2134L110,2365L451,2275Z" fill="#95d1c5" stroke="#95d1c5" stroke-width="1.51"/><path d="M451,2275L478,2734L868,2455Z" fill="#74c4c8" stroke="#74c4c8" stroke-width="1.51"/><path d="M666,1778L331,1647L422,1950Z" fill="#93d5bd" stroke="#93d5bd" stroke-width="1.51"/><path d="M422,1950L-103,1884L166,2134Z" fill="#a1d8c4" stroke="#a1d8c4" stroke-width="1.51"/><path d="M333,1551L331,1647L666,1778Z" fill="#9ad7bb" stroke="#9ad7bb" stroke-width="1.51"/><path d="M110,2365L327,2618L451,2275Z" fill="#8dcdc6" stroke="#8dcdc6" stroke-width="1.51"/><path d="M110,2365L81,2433L327,2618Z" fill="#94ceca" stroke="#94ceca" stroke-width="1.51"/><path d="M-95,2151L81,2433L110,2365Z" fill="#9fd4cc" stroke="#9fd4cc" stroke-width="1.51"/><path d="M-103,1884L-95,2151L166,2134Z" fill="#a7daca" stroke="#a7daca" stroke-width="1.51"/><path d="M585,1383L333,1551L666,1778Z" fill="#97d6bc" stroke="#97d6bc" stroke-width="1.51"/><path d="M478,2734L864,2609L868,2455Z" fill="#65bdcb" stroke="#65bdcb" stroke-width="1.51"/><path d="M1221,2453L1157,2100L868,2455Z" fill="#55b3cf" stroke="#55b3cf" stroke-width="1.51"/><path d="M868,2455L1157,2100L728,2107Z" fill="#65becd" stroke="#65becd" stroke-width="1.51"/><path d="M327,2618L478,2734L451,2275Z" fill="#82c7c5" stroke="#82c7c5" stroke-width="1.51"/><path d="M251,3102L478,2734L327,2618Z" fill="#81c0c1" stroke="#81c0c1" stroke-width="1.51"/><path d="M166,2134L-95,2151L110,2365Z" fill="#a0d6ca" stroke="#a0d6ca" stroke-width="1.51"/><path d="M-103,1884L422,1950L331,1647Z" fill="#a2dac1" stroke="#a2dac1" stroke-width="1.51"/><path d="M-144,1418L-103,1884L331,1647Z" fill="#b1e0c5" stroke="#b1e0c5" stroke-width="1.51"/><path d="M842,1712L585,1383L666,1778Z" fill="#89d0c0" stroke="#89d0c0" stroke-width="1.51"/><path d="M847,1351L585,1383L842,1712Z" fill="#8ad0c0" stroke="#8ad0c0" stroke-width="1.51"/><path d="M81,2433L-43,2547L327,2618Z" fill="#95cecc" stroke="#95cecc" stroke-width="1.51"/><path d="M-236,2238L-43,2547L81,2433Z" fill="#9fd3d1" stroke="#9fd3d1" stroke-width="1.51"/><path d="M1146,2667L1221,2453L868,2455Z" fill="#4cafd2" stroke="#4cafd2" stroke-width="1.51"/><path d="M-95,2151L-236,2238L81,2433Z" fill="#a3d6d0" stroke="#a3d6d0" stroke-width="1.51"/><path d="M-246,1995L-236,2238L-95,2151Z" fill="#aadbd2" stroke="#aadbd2" stroke-width="1.51"/><path d="M-103,1884L-246,1995L-95,2151Z" fill="#acddcf" stroke="#acddcf" stroke-width="1.51"/><path d="M1053,1444L847,1351L842,1712Z" fill="#81cac4" stroke="#81cac4" stroke-width="1.51"/><path d="M1281,1625L1053,1444L842,1712Z" fill="#75c2c7" stroke="#75c2c7" stroke-width="1.51"/><path d="M1221,2453L1366,2076L1157,2100Z" fill="#53abc8" stroke="#53abc8" stroke-width="1.51"/><path d="M1221,2453L1598,2270L1366,2076Z" fill="#4aa1c4" stroke="#4aa1c4" stroke-width="1.51"/><path d="M864,2609L1146,2667L868,2455Z" fill="#53b4d1" stroke="#53b4d1" stroke-width="1.51"/><path d="M1001,3038L1146,2667L864,2609Z" fill="#4aaccf" stroke="#4aaccf" stroke-width="1.51"/><path d="M1281,1625L842,1712L1157,2100Z" fill="#6abcc8" stroke="#6abcc8" stroke-width="1.51"/><path d="M1366,2076L1281,1625L1157,2100Z" fill="#5dafc4" stroke="#5dafc4" stroke-width="1.51"/><path d="M478,2734L677,2990L864,2609Z" fill="#67b9c7" stroke="#67b9c7" stroke-width="1.51"/><path d="M484,3165L677,2990L478,2734Z" fill="#6fb6c1" stroke="#6fb6c1" stroke-width="1.51"/><path d="M-103,1884L-313,1718L-246,1995Z" fill="#b2e1cf" stroke="#b2e1cf" stroke-width="1.51"/><path d="M-246,1995L-433,2704L-236,2238Z" fill="#aad9d8" stroke="#aad9d8" stroke-width="1.51"/><path d="M-144,1418L-313,1718L-103,1884Z" fill="#b8e3cc" stroke="#b8e3cc" stroke-width="1.51"/><path d="M-144,1418L331,1647L333,1551Z" fill="#aee0be" stroke="#aee0be" stroke-width="1.51"/><path d="M128,1186L-144,1418L333,1551Z" fill="#b8e3be" stroke="#b8e3be" stroke-width="1.51"/><path d="M128,1186L333,1551L585,1383Z" fill="#aaddb8" stroke="#aaddb8" stroke-width="1.51"/><path d="M847,1351L718,1116L585,1383Z" fill="#94d5bd" stroke="#94d5bd" stroke-width="1.51"/><path d="M1104,1260L837,1177L847,1351Z" fill="#8accc2" stroke="#8accc2" stroke-width="1.51"/><path d="M1104,1260L847,1351L1053,1444Z" fill="#82c8c4" stroke="#82c8c4" stroke-width="1.51"/><path d="M837,1177L718,1116L847,1351Z" fill="#91d2c0" stroke="#91d2c0" stroke-width="1.51"/><path d="M718,1116L128,1186L585,1383Z" fill="#a6dcb8" stroke="#a6dcb8" stroke-width="1.51"/><path d="M1366,2076L1488,1760L1281,1625Z" fill="#5eaabf" stroke="#5eaabf" stroke-width="1.51"/><path d="M1436,1421L1104,1260L1053,1444Z" fill="#79bbc0" stroke="#79bbc0" stroke-width="1.51"/><path d="M1712,2009L1488,1760L1366,2076Z" fill="#549fbd" stroke="#549fbd" stroke-width="1.51"/><path d="M1436,1421L1053,1444L1281,1625Z" fill="#71b6bf" stroke="#71b6bf" stroke-width="1.51"/><path d="M768,799L643,810L718,1116Z" fill="#a0d9c2" stroke="#a0d9c2" stroke-width="1.51"/><path d="M-43,2547L35,2989L327,2618Z" fill="#93c8ca" stroke="#93c8ca" stroke-width="1.51"/><path d="M-433,2704L35,2989L-43,2547Z" fill="#9acbd2" stroke="#9acbd2" stroke-width="1.51"/><path d="M35,2989L251,3102L327,2618Z" fill="#89c0c4" stroke="#89c0c4" stroke-width="1.51"/><path d="M677,2990L1001,3038L864,2609Z" fill="#56afc9" stroke="#56afc9" stroke-width="1.51"/><path d="M961,3450L1001,3038L677,2990Z" fill="#4da5c5" stroke="#4da5c5" stroke-width="1.51"/><path d="M251,3102L484,3165L478,2734Z" fill="#7ab8bd" stroke="#7ab8bd" stroke-width="1.51"/><path d="M1518,2799L1598,2270L1221,2453Z" fill="#3d99c5" stroke="#3d99c5" stroke-width="1.51"/><path d="M1518,2799L1221,2453L1146,2667Z" fill="#3d9ec8" stroke="#3d9ec8" stroke-width="1.51"/><path d="M1663,1484L1436,1421L1488,1760Z" fill="#67a4b8" stroke="#67a4b8" stroke-width="1.51"/><path d="M1488,1760L1436,1421L1281,1625Z" fill="#68abbc" stroke="#68abbc" stroke-width="1.51"/><path d="M-313,1718L-433,2704L-246,1995Z" fill="#afddd7" stroke="#afddd7" stroke-width="1.51"/><path d="M-236,2238L-433,2704L-43,2547Z" fill="#a3d4d8" stroke="#a3d4d8" stroke-width="1.51"/><path d="M1598,2270L1712,2009L1366,2076Z" fill="#4d9abd" stroke="#4d9abd" stroke-width="1.51"/><path d="M-144,1418L-388,1354L-313,1718Z" fill="#c1e7cd" stroke="#c1e7cd" stroke-width="1.51"/><path d="M128,1186L-54,1079L-144,1418Z" fill="#c1e7c2" stroke="#c1e7c2" stroke-width="1.51"/><path d="M178,758L-54,1079L128,1186Z" fill="#c4e8c2" stroke="#c4e8c2" stroke-width="1.51"/><path d="M-430,1176L-388,1354L-144,1418Z" fill="#c8eacc" stroke="#c8eacc" stroke-width="1.51"/><path d="M-313,1718L-388,1354L-433,2704Z" fill="#b7e2d5" stroke="#b7e2d5" stroke-width="1.51"/><path d="M1398,2996L1518,2799L1146,2667Z" fill="#3595c3" stroke="#3595c3" stroke-width="1.51"/><path d="M1598,2270L1879,2444L1712,2009Z" fill="#448cb6" stroke="#448cb6" stroke-width="1.51"/><path d="M1163,3401L1275,3076L1001,3038Z" fill="#3797c4" stroke="#3797c4" stroke-width="1.51"/><path d="M1001,3038L1275,3076L1146,2667Z" fill="#3e9fc9" stroke="#3e9fc9" stroke-width="1.51"/><path d="M1275,3076L1398,2996L1146,2667Z" fill="#3797c4" stroke="#3797c4" stroke-width="1.51"/><path d="M1436,1421L1338,1154L1104,1260Z" fill="#79b6bc" stroke="#79b6bc" stroke-width="1.51"/><path d="M1155,755L768,799L837,1177Z" fill="#95d1c7" stroke="#95d1c7" stroke-width="1.51"/><path d="M1868,1195L1338,1154L1436,1421Z" fill="#73a6b5" stroke="#73a6b5" stroke-width="1.51"/><path d="M1767,1728L1663,1484L1488,1760Z" fill="#609cb6" stroke="#609cb6" stroke-width="1.51"/><path d="M1712,2009L1767,1728L1488,1760Z" fill="#5798b7" stroke="#5798b7" stroke-width="1.51"/><path d="M718,1116L643,810L128,1186Z" fill="#abddbb" stroke="#abddbb" stroke-width="1.51"/><path d="M768,799L718,1116L837,1177Z" fill="#99d5c2" stroke="#99d5c2" stroke-width="1.51"/><path d="M-501,3128L-141,3241L35,2989Z" fill="#94bfce" stroke="#94bfce" stroke-width="1.51"/><path d="M35,2989L-141,3241L251,3102Z" fill="#8dbcc5" stroke="#8dbcc5" stroke-width="1.51"/><path d="M251,3102L268,3436L484,3165Z" fill="#7ab3bc" stroke="#7ab3bc" stroke-width="1.51"/><path d="M484,3165L961,3450L677,2990Z" fill="#5baac0" stroke="#5baac0" stroke-width="1.51"/><path d="M1155,755L837,1177L1104,1260Z" fill="#8acac8" stroke="#8acac8" stroke-width="1.51"/><path d="M-54,1079L-430,1176L-144,1418Z" fill="#c7e9c9" stroke="#c7e9c9" stroke-width="1.51"/><path d="M-388,1354L-430,1176L-433,2704Z" fill="#bee5d5" stroke="#bee5d5" stroke-width="1.51"/><path d="M-442,820L-430,1176L-54,1079Z" fill="#d1edcf" stroke="#d1edcf" stroke-width="1.51"/><path d="M-141,3241L268,3436L251,3102Z" fill="#88b6c1" stroke="#88b6c1" stroke-width="1.51"/><path d="M1856,2701L1879,2444L1518,2799Z" fill="#3081b5" stroke="#3081b5" stroke-width="1.51"/><path d="M1518,2799L1879,2444L1598,2270Z" fill="#368bbe" stroke="#368bbe" stroke-width="1.51"/><path d="M1712,2009L1879,2444L1767,1728Z" fill="#4b8bb0" stroke="#4b8bb0" stroke-width="1.51"/><path d="M643,810L178,758L128,1186Z" fill="#b9e4bc" stroke="#b9e4bc" stroke-width="1.51"/><path d="M528,518L178,758L643,810Z" fill="#b8e3be" stroke="#b8e3be" stroke-width="1.51"/><path d="M920,3524L961,3450L484,3165Z" fill="#52a1bf" stroke="#52a1bf" stroke-width="1.51"/><path d="M1275,3076L1449,3325L1398,2996Z" fill="#2a8abe" stroke="#2a8abe" stroke-width="1.51"/><path d="M510,3673L920,3524L484,3165Z" fill="#5fa4bb" stroke="#5fa4bb" stroke-width="1.51"/><path d="M-141,3241L249,3491L268,3436Z" fill="#86b2bf" stroke="#86b2bf" stroke-width="1.51"/><path d="M961,3450L1163,3401L1001,3038Z" fill="#3b9ac6" stroke="#3b9ac6" stroke-width="1.51"/><path d="M1938,2978L1856,2701L1518,2799Z" fill="#2b7bb1" stroke="#2b7bb1" stroke-width="1.51"/><path d="M1938,2978L1518,2799L1398,2996Z" fill="#2882ba" stroke="#2882ba" stroke-width="1.51"/><path d="M178,758L24,748L-54,1079Z" fill="#c9eac5" stroke="#c9eac5" stroke-width="1.51"/><path d="M-141,3241L-242,3553L249,3491Z" fill="#8bb3c4" stroke="#8bb3c4" stroke-width="1.51"/><path d="M-433,2704L-501,3128L35,2989Z" fill="#9bc6d4" stroke="#9bc6d4" stroke-width="1.51"/><path d="M-430,1176L-501,3128L-433,2704Z" fill="#afdadd" stroke="#afdadd" stroke-width="1.51"/><path d="M510,3673L484,3165L268,3436Z" fill="#73abb7" stroke="#73abb7" stroke-width="1.51"/><path d="M961,3450L1157,3650L1163,3401Z" fill="#3590c1" stroke="#3590c1" stroke-width="1.51"/><path d="M768,799L528,518L643,810Z" fill="#aaddc3" stroke="#aaddc3" stroke-width="1.51"/><path d="M178,758L78,549L24,748Z" fill="#cdebc5" stroke="#cdebc5" stroke-width="1.51"/><path d="M1338,1154L1155,755L1104,1260Z" fill="#84bfc2" stroke="#84bfc2" stroke-width="1.51"/><path d="M1486,825L1155,755L1338,1154Z" fill="#83b8c0" stroke="#83b8c0" stroke-width="1.51"/><path d="M1157,3650L1449,3325L1163,3401Z" fill="#2b88bc" stroke="#2b88bc" stroke-width="1.51"/><path d="M1163,3401L1449,3325L1275,3076Z" fill="#2b8bbe" stroke="#2b8bbe" stroke-width="1.51"/><path d="M249,3491L510,3673L268,3436Z" fill="#76a9b7" stroke="#76a9b7" stroke-width="1.51"/><path d="M391,3973L510,3673L249,3491Z" fill="#72a2b3" stroke="#72a2b3" stroke-width="1.51"/><path d="M853,398L528,518L768,799Z" fill="#a8dcc7" stroke="#a8dcc7" stroke-width="1.51"/><path d="M1679,918L1486,825L1338,1154Z" fill="#7dacba" stroke="#7dacba" stroke-width="1.51"/><path d="M1155,755L1083,513L768,799Z" fill="#98d0cc" stroke="#98d0cc" stroke-width="1.51"/><path d="M1868,1195L1436,1421L1663,1484Z" fill="#6c9eb2" stroke="#6c9eb2" stroke-width="1.51"/><path d="M1879,2444L1868,1195L1767,1728Z" fill="#568ca9" stroke="#568ca9" stroke-width="1.51"/><path d="M1767,1728L1868,1195L1663,1484Z" fill="#6595ab" stroke="#6595ab" stroke-width="1.51"/><path d="M-430,1176L-442,820L-501,3128Z" fill="#c1e7d5" stroke="#c1e7d5" stroke-width="1.51"/><path d="M24,748L-442,820L-54,1079Z" fill="#cfedcc" stroke="#cfedcc" stroke-width="1.51"/><path d="M-378,467L-442,820L24,748Z" fill="#d9f0d2" stroke="#d9f0d2" stroke-width="1.51"/><path d="M305,440L78,549L178,758Z" fill="#caeac5" stroke="#caeac5" stroke-width="1.51"/><path d="M-495,3437L-242,3553L-141,3241Z" fill="#93b7cc" stroke="#93b7cc" stroke-width="1.51"/><path d="M1868,1195L1679,918L1338,1154Z" fill="#76a3b5" stroke="#76a3b5" stroke-width="1.51"/><path d="M1782,3318L1938,2978L1398,2996Z" fill="#2177b1" stroke="#2177b1" stroke-width="1.51"/><path d="M1856,2701L1938,2978L1879,2444Z" fill="#2e76ab" stroke="#2e76ab" stroke-width="1.51"/><path d="M1879,2444L1938,2978L1868,1195Z" fill="#4381a9" stroke="#4381a9" stroke-width="1.51"/><path d="M920,3524L1157,3650L961,3450Z" fill="#3a94c3" stroke="#3a94c3" stroke-width="1.51"/><path d="M1449,3325L1782,3318L1398,2996Z" fill="#217db7" stroke="#217db7" stroke-width="1.51"/><path d="M1175,3833L1157,3650L920,3524Z" fill="#338cbf" stroke="#338cbf" stroke-width="1.51"/><path d="M528,518L305,440L178,758Z" fill="#c1e7c1" stroke="#c1e7c1" stroke-width="1.51"/><path d="M575,113L305,440L528,518Z" fill="#bce5c4" stroke="#bce5c4" stroke-width="1.51"/><path d="M1390,400L1083,513L1155,755Z" fill="#91c3c9" stroke="#91c3c9" stroke-width="1.51"/><path d="M1390,400L1155,755L1486,825Z" fill="#8abac2" stroke="#8abac2" stroke-width="1.51"/><path d="M-501,3128L-495,3437L-141,3241Z" fill="#98bdd1" stroke="#98bdd1" stroke-width="1.51"/><path d="M-378,3836L-167,3669L-242,3553Z" fill="#8fadc7" stroke="#8fadc7" stroke-width="1.51"/><path d="M-242,3553L-167,3669L249,3491Z" fill="#89aec2" stroke="#89aec2" stroke-width="1.51"/><path d="M1083,513L853,398L768,799Z" fill="#9fd5cb" stroke="#9fd5cb" stroke-width="1.51"/><path d="M1580,3696L1782,3318L1449,3325Z" fill="#1873b2" stroke="#1873b2" stroke-width="1.51"/><path d="M305,440L199,376L78,549Z" fill="#cbebc6" stroke="#cbebc6" stroke-width="1.51"/><path d="M78,549L-378,467L24,748Z" fill="#d4eece" stroke="#d4eece" stroke-width="1.51"/><path d="M575,113L199,376L305,440Z" fill="#c3e8c5" stroke="#c3e8c5" stroke-width="1.51"/><path d="M1157,3650L1580,3696L1449,3325Z" fill="#207cb6" stroke="#207cb6" stroke-width="1.51"/><path d="M793,4007L1175,3833L920,3524Z" fill="#3c8ebd" stroke="#3c8ebd" stroke-width="1.51"/><path d="M668,3965L920,3524L510,3673Z" fill="#559ab9" stroke="#559ab9" stroke-width="1.51"/><path d="M853,398L575,113L528,518Z" fill="#b0e0c9" stroke="#b0e0c9" stroke-width="1.51"/><path d="M1083,513L874,285L853,398Z" fill="#a0d4cf" stroke="#a0d4cf" stroke-width="1.51"/><path d="M1223,219L874,285L1083,513Z" fill="#9acfd2" stroke="#9acfd2" stroke-width="1.51"/><path d="M391,3973L668,3965L510,3673Z" fill="#649ab1" stroke="#649ab1" stroke-width="1.51"/><path d="M-76,177L-378,467L78,549Z" fill="#d9f0d2" stroke="#d9f0d2" stroke-width="1.51"/><path d="M-49,3886L391,3973L249,3491Z" fill="#7ca4b7" stroke="#7ca4b7" stroke-width="1.51"/><path d="M-167,3669L-49,3886L249,3491Z" fill="#86aabe" stroke="#86aabe" stroke-width="1.51"/><path d="M-378,3836L-49,3886L-167,3669Z" fill="#8ba9c3" stroke="#8ba9c3" stroke-width="1.51"/><path d="M1175,3833L1580,3696L1157,3650Z" fill="#227db7" stroke="#227db7" stroke-width="1.51"/><path d="M1822,435L1390,400L1486,825Z" fill="#86acbe" stroke="#86acbe" stroke-width="1.51"/><path d="M1404,304L1390,400L1822,435Z" fill="#89afc2" stroke="#89afc2" stroke-width="1.51"/><path d="M1175,3833L1595,3913L1580,3696Z" fill="#1871af" stroke="#1871af" stroke-width="1.51"/><path d="M668,3965L793,4007L920,3524Z" fill="#4c93b8" stroke="#4c93b8" stroke-width="1.51"/><path d="M823,4204L793,4007L668,3965Z" fill="#4d8caf" stroke="#4d8caf" stroke-width="1.51"/><path d="M-495,3437L-378,3836L-242,3553Z" fill="#94b2cd" stroke="#94b2cd" stroke-width="1.51"/><path d="M-49,3886L107,4096L391,3973Z" fill="#7c9db1" stroke="#7c9db1" stroke-width="1.51"/><path d="M874,285L575,113L853,398Z" fill="#aadccd" stroke="#aadccd" stroke-width="1.51"/><path d="M199,376L-76,177L78,549Z" fill="#d3eecc" stroke="#d3eecc" stroke-width="1.51"/><path d="M893,-226L575,113L874,285Z" fill="#aeddd2" stroke="#aeddd2" stroke-width="1.51"/><path d="M1822,435L1486,825L1679,918Z" fill="#80a4b8" stroke="#80a4b8" stroke-width="1.51"/><path d="M1390,400L1223,219L1083,513Z" fill="#93c3cb" stroke="#93c3cb" stroke-width="1.51"/><path d="M1404,304L1223,219L1390,400Z" fill="#90bcc9" stroke="#90bcc9" stroke-width="1.51"/><path d="M180,15L-76,177L199,376Z" fill="#d4efce" stroke="#d4efce" stroke-width="1.51"/><path d="M1580,3696L1938,3572L1782,3318Z" fill="#1366a6" stroke="#1366a6" stroke-width="1.51"/><path d="M1782,3318L1938,3572L1938,2978Z" fill="#1b65a2" stroke="#1b65a2" stroke-width="1.51"/><path d="M1595,3913L1938,3572L1580,3696Z" fill="#0b65a8" stroke="#0b65a8" stroke-width="1.51"/><path d="M490,4292L823,4204L668,3965Z" fill="#558ca9" stroke="#558ca9" stroke-width="1.51"/><path d="M24,4281L107,4096L-49,3886Z" fill="#809cb1" stroke="#809cb1" stroke-width="1.51"/><path d="M1045,4187L1175,3833L793,4007Z" fill="#3785b6" stroke="#3785b6" stroke-width="1.51"/><path d="M1410,4158L1595,3913L1175,3833Z" fill="#1b6fac" stroke="#1b6fac" stroke-width="1.51"/><path d="M1868,1195L1822,435L1679,918Z" fill="#799aad" stroke="#799aad" stroke-width="1.51"/><path d="M1404,304L1414,9L1223,219Z" fill="#92bccb" stroke="#92bccb" stroke-width="1.51"/><path d="M493,-214L180,15L575,113Z" fill="#c6e9ca" stroke="#c6e9ca" stroke-width="1.51"/><path d="M575,113L180,15L199,376Z" fill="#c8eac9" stroke="#c8eac9" stroke-width="1.51"/><path d="M490,4292L668,3965L391,3973Z" fill="#6392a9" stroke="#6392a9" stroke-width="1.51"/><path d="M823,4204L1045,4187L793,4007Z" fill="#4285af" stroke="#4285af" stroke-width="1.51"/><path d="M-378,467L-442,176L-442,820Z" fill="#e2f4db" stroke="#e2f4db" stroke-width="1.51"/><path d="M-442,820L-455,-504L-501,3128Z" fill="#d3eed3" stroke="#d3eed3" stroke-width="1.51"/><path d="M-76,177L-442,176L-378,467Z" fill="#e1f3db" stroke="#e1f3db" stroke-width="1.51"/><path d="M-337,-23L-442,176L-76,177Z" fill="#e3f4dd" stroke="#e3f4dd" stroke-width="1.51"/><path d="M107,4096L490,4292L391,3973Z" fill="#7095a7" stroke="#7095a7" stroke-width="1.51"/><path d="M823,4204L982,4531L1045,4187Z" fill="#3b7caa" stroke="#3b7caa" stroke-width="1.51"/><path d="M1251,4486L1410,4158L1045,4187Z" fill="#266ea6" stroke="#266ea6" stroke-width="1.51"/><path d="M1045,4187L1410,4158L1175,3833Z" fill="#2877af" stroke="#2877af" stroke-width="1.51"/><path d="M1595,3913L1944,4066L1938,3572Z" fill="#09599c" stroke="#09599c" stroke-width="1.51"/><path d="M-248,4308L24,4281L-49,3886Z" fill="#829ab2" stroke="#829ab2" stroke-width="1.51"/><path d="M107,4096L162,4460L490,4292Z" fill="#7291a4" stroke="#7291a4" stroke-width="1.51"/><path d="M1223,219L1062,-135L874,285Z" fill="#9fd0d5" stroke="#9fd0d5" stroke-width="1.51"/><path d="M1834,226L1414,9L1404,304Z" fill="#8cafc5" stroke="#8cafc5" stroke-width="1.51"/><path d="M1822,435L1834,226L1404,304Z" fill="#86a6bd" stroke="#86a6bd" stroke-width="1.51"/><path d="M1868,1195L1834,226L1822,435Z" fill="#7d99ad" stroke="#7d99ad" stroke-width="1.51"/><path d="M1874,-342L1834,226L1868,1195Z" fill="#8198b0" stroke="#8198b0" stroke-width="1.51"/><path d="M-164,-101L-337,-23L-76,177Z" fill="#e1f4db" stroke="#e1f4db" stroke-width="1.51"/><path d="M-164,-101L-76,177L180,15Z" fill="#dbf1d5" stroke="#dbf1d5" stroke-width="1.51"/><path d="M1414,9L1062,-135L1223,219Z" fill="#99c5d2" stroke="#99c5d2" stroke-width="1.51"/><path d="M122,-381L-164,-101L180,15Z" fill="#ddf2d6" stroke="#ddf2d6" stroke-width="1.51"/><path d="M893,-226L493,-214L575,113Z" fill="#b8e3d1" stroke="#b8e3d1" stroke-width="1.51"/><path d="M24,4281L162,4460L107,4096Z" fill="#7b94a8" stroke="#7b94a8" stroke-width="1.51"/><path d="M-378,3836L-248,4308L-49,3886Z" fill="#88a2bc" stroke="#88a2bc" stroke-width="1.51"/><path d="M-295,4606L-248,4308L-378,3836Z" fill="#889ab6" stroke="#889ab6" stroke-width="1.51"/><path d="M1062,-135L893,-226L874,285Z" fill="#a7d7d7" stroke="#a7d7d7" stroke-width="1.51"/><path d="M1282,-306L893,-226L1062,-135Z" fill="#a4d1da" stroke="#a4d1da" stroke-width="1.51"/><path d="M-105,4612L162,4460L24,4281Z" fill="#7c91a7" stroke="#7c91a7" stroke-width="1.51"/><path d="M596,4636L982,4531L823,4204Z" fill="#487fa4" stroke="#487fa4" stroke-width="1.51"/><path d="M1863,4185L1595,3913L1410,4158Z" fill="#0b5ea1" stroke="#0b5ea1" stroke-width="1.51"/><path d="M1863,4185L1944,4066L1595,3913Z" fill="#0a5496" stroke="#0a5496" stroke-width="1.51"/><path d="M1938,3572L1944,4066L1938,2978Z" fill="#135a9a" stroke="#135a9a" stroke-width="1.51"/><path d="M1834,226L1677,-68L1414,9Z" fill="#8caac5" stroke="#8caac5" stroke-width="1.51"/><path d="M1414,9L1282,-306L1062,-135Z" fill="#9bc5d4" stroke="#9bc5d4" stroke-width="1.51"/><path d="M596,4636L823,4204L490,4292Z" fill="#5685a1" stroke="#5685a1" stroke-width="1.51"/><path d="M1516,4604L1863,4185L1410,4158Z" fill="#0e589a" stroke="#0e589a" stroke-width="1.51"/><path d="M982,4531L1251,4486L1045,4187Z" fill="#2e73a7" stroke="#2e73a7" stroke-width="1.51"/><path d="M493,-214L122,-381L180,15Z" fill="#d2eed0" stroke="#d2eed0" stroke-width="1.51"/><path d="M-164,-101L-455,-504L-337,-23Z" fill="#eaf7e4" stroke="#eaf7e4" stroke-width="1.51"/><path d="M831,-526L434,-398L493,-214Z" fill="#c2e7d4" stroke="#c2e7d4" stroke-width="1.51"/><path d="M831,-526L493,-214L893,-226Z" fill="#b7e2d7" stroke="#b7e2d7" stroke-width="1.51"/><path d="M434,-398L122,-381L493,-214Z" fill="#d0edd0" stroke="#d0edd0" stroke-width="1.51"/><path d="M1677,-68L1282,-306L1414,9Z" fill="#94b7cd" stroke="#94b7cd" stroke-width="1.51"/><path d="M982,4531L1516,4604L1251,4486Z" fill="#246aa2" stroke="#246aa2" stroke-width="1.51"/><path d="M162,4460L596,4636L490,4292Z" fill="#688a9c" stroke="#688a9c" stroke-width="1.51"/><path d="M-105,4612L596,4636L162,4460Z" fill="#738ea1" stroke="#738ea1" stroke-width="1.51"/><path d="M-248,4308L-105,4612L24,4281Z" fill="#8093ab" stroke="#8093ab" stroke-width="1.51"/><path d="M831,-526L-123,-408L122,-381Z" fill="#d6efd4" stroke="#d6efd4" stroke-width="1.51"/><path d="M122,-381L-123,-408L-164,-101Z" fill="#e2f4dc" stroke="#e2f4dc" stroke-width="1.51"/><path d="M-248,4308L-295,4606L-105,4612Z" fill="#8394af" stroke="#8394af" stroke-width="1.51"/><path d="M-105,4612L-295,4606L596,4636Z" fill="#7b91a5" stroke="#7b91a5" stroke-width="1.51"/><path d="M-495,3437L-295,4606L-378,3836Z" fill="#8fa6c3" stroke="#8fa6c3" stroke-width="1.51"/><path d="M1282,-306L831,-526L893,-226Z" fill="#aad7de" stroke="#aad7de" stroke-width="1.51"/><path d="M434,-398L831,-526L122,-381Z" fill="#caebd1" stroke="#caebd1" stroke-width="1.51"/><path d="M1645,4676L1516,4604L982,4531Z" fill="#1b629e" stroke="#1b629e" stroke-width="1.51"/><path d="M1251,4486L1516,4604L1410,4158Z" fill="#1b629e" stroke="#1b629e" stroke-width="1.51"/><path d="M1677,-68L1621,-469L1282,-306Z" fill="#95b4ce" stroke="#95b4ce" stroke-width="1.51"/><path d="M1282,-306L1621,-469L831,-526Z" fill="#a1c7d8" stroke="#a1c7d8" stroke-width="1.51"/><path d="M1834,226L1874,-342L1677,-68Z" fill="#89a0bc" stroke="#89a0bc" stroke-width="1.51"/><path d="M1938,2978L1874,-342L1868,1195Z" fill="#6a8ea1" stroke="#6a8ea1" stroke-width="1.51"/><path d="M831,-526L-455,-504L-123,-408Z" fill="#e1f4da" stroke="#e1f4da" stroke-width="1.51"/><path d="M-123,-408L-455,-504L-164,-101Z" fill="#eaf7e3" stroke="#eaf7e3" stroke-width="1.51"/><path d="M-337,-23L-455,-504L-442,176Z" fill="#ecf8e5" stroke="#ecf8e5" stroke-width="1.51"/><path d="M-442,176L-455,-504L-442,820Z" fill="#e8f6e2" stroke="#e8f6e2" stroke-width="1.51"/><path d="M1874,-342L1621,-469L1677,-68Z" fill="#8fa7c4" stroke="#8fa7c4" stroke-width="1.51"/><path d="M596,4636L1645,4676L982,4531Z" fill="#2f74a8" stroke="#2f74a8" stroke-width="1.51"/><path d="M1516,4604L1645,4676L1863,4185Z" fill="#0a5294" stroke="#0a5294" stroke-width="1.51"/><path d="M1863,4185L1645,4676L1944,4066Z" fill="#094a8c" stroke="#094a8c" stroke-width="1.51"/><path d="M-295,4606L1645,4676L596,4636Z" fill="#5584a1" stroke="#5584a1" stroke-width="1.51"/></svg>