<svg xmlns="http://www.w3.org/2000/svg" width="1440" height="3840"><path d="M752,1957L942,1669L645,1713Z" fill="#48b5c3" stroke="#48b5c3" stroke-width="1.51"/><path d="M942,1669L638,1610L645,1713Z" fill="#51b9c2" stroke="#51b9c2" stroke-width="1.51"/><path d="M638,1610L545,1613L645,1713Z" fill="#5fbfc1" stroke="#5fbfc1" stroke-width="1.51"/><path d="M645,1713L401,1711L752,1957Z" fill="#58bdc2" stroke="#58bdc2" stroke-width="1.51"/><path d="M942,1669L873,1439L638,1610Z" fill="#54b6c1" stroke="#54b6c1" stroke-width="1.51"/><path d="M638,1610L675,1294L545,1613Z" fill="#65c2c0" stroke="#65c2c0" stroke-width="1.51"/><path d="M752,1957L1007,2125L942,1669Z" fill="#39abc3" stroke="#39abc3" stroke-width="1.51"/><path d="M545,1613L401,1711L645,1713Z" fill="#65c1c0" stroke="#65c1c0" stroke-width="1.51"/><path d="M1007,2125L1143,2098L942,1669Z" fill="#32a1c2" stroke="#32a1c2" stroke-width="1.51"/><path d="M1210,1416L991,1312L873,1439Z" fill="#57adbe" stroke="#57adbe" stroke-width="1.51"/><path d="M1143,2098L1281,1697L942,1669Z" fill="#3d9dbe" stroke="#3d9dbe" stroke-width="1.51"/><path d="M1007,2125L1042,2219L1143,2098Z" fill="#2d99c0" stroke="#2d99c0" stroke-width="1.51"/><path d="M851,2318L1042,2219L1007,2125Z" fill="#2d9dc2" stroke="#2d9dc2" stroke-width="1.51"/><path d="M851,2318L1007,2125L752,1957Z" fill="#35a6c3" stroke="#35a6c3" stroke-width="1.51"/><path d="M873,1439L675,1294L638,1610Z" fill="#5dbec1" stroke="#5dbec1" stroke-width="1.51"/><path d="M1210,1416L873,1439L942,1669Z" fill="#51acbf" stroke="#51acbf" stroke-width="1.51"/><path d="M991,1312L675,1294L873,1439Z" fill="#5eb9bf" stroke="#5eb9bf" stroke-width="1.51"/><path d="M239,1591L271,1723L401,1711Z" fill="#80cbbd" stroke="#80cbbd" stroke-width="1.51"/><path d="M401,1711L483,2185L752,1957Z" fill="#57bbc2" stroke="#57bbc2" stroke-width="1.51"/><path d="M483,2185L851,2318L752,1957Z" fill="#40b0c3" stroke="#40b0c3" stroke-width="1.51"/><path d="M401,1711L246,2155L483,2185Z" fill="#6ac0bf" stroke="#6ac0bf" stroke-width="1.51"/><path d="M239,1591L401,1711L545,1613Z" fill="#75c8be" stroke="#75c8be" stroke-width="1.51"/><path d="M1281,1697L1210,1416L942,1669Z" fill="#4c9ebb" stroke="#4c9ebb" stroke-width="1.51"/><path d="M675,1294L556,1252L545,1613Z" fill="#6dc5be" stroke="#6dc5be" stroke-width="1.51"/><path d="M682,1073L556,1252L675,1294Z" fill="#74c7be" stroke="#74c7be" stroke-width="1.51"/><path d="M556,1252L239,1591L545,1613Z" fill="#76c8bd" stroke="#76c8bd" stroke-width="1.51"/><path d="M483,2185L510,2332L851,2318Z" fill="#48afc2" stroke="#48afc2" stroke-width="1.51"/><path d="M246,2155L510,2332L483,2185Z" fill="#60b8bf" stroke="#60b8bf" stroke-width="1.51"/><path d="M1143,2098L1428,1832L1281,1697Z" fill="#3a8eb7" stroke="#3a8eb7" stroke-width="1.51"/><path d="M1281,1697L1452,1605L1210,1416Z" fill="#4e90b5" stroke="#4e90b5" stroke-width="1.51"/><path d="M1531,2188L1428,1832L1143,2098Z" fill="#3683b4" stroke="#3683b4" stroke-width="1.51"/><path d="M1428,1832L1452,1605L1281,1697Z" fill="#4788b3" stroke="#4788b3" stroke-width="1.51"/><path d="M271,1723L246,2155L401,1711Z" fill="#78c7be" stroke="#78c7be" stroke-width="1.51"/><path d="M163,2256L246,2155L-197,2089Z" fill="#90c8bc" stroke="#90c8bc" stroke-width="1.51"/><path d="M1042,2219L1131,2410L1143,2098Z" fill="#2b92be" stroke="#2b92be" stroke-width="1.51"/><path d="M851,2318L1131,2410L1042,2219Z" fill="#2798c1" stroke="#2798c1" stroke-width="1.51"/><path d="M891,2559L1131,2410L851,2318Z" fill="#2798c1" stroke="#2798c1" stroke-width="1.51"/><path d="M991,1312L1008,1092L675,1294Z" fill="#66b9be" stroke="#66b9be" stroke-width="1.51"/><path d="M1262,1146L1008,1092L991,1312Z" fill="#65abbb" stroke="#65abbb" stroke-width="1.51"/><path d="M1262,1146L991,1312L1210,1416Z" fill="#5da3b9" stroke="#5da3b9" stroke-width="1.51"/><path d="M556,1252L136,1306L239,1591Z" fill="#8bd0bb" stroke="#8bd0bb" stroke-width="1.51"/><path d="M1008,1092L682,1073L675,1294Z" fill="#6fc1be" stroke="#6fc1be" stroke-width="1.51"/><path d="M586,2583L891,2559L851,2318Z" fill="#31a1c2" stroke="#31a1c2" stroke-width="1.51"/><path d="M1589,1275L1262,1146L1210,1416Z" fill="#5e92b2" stroke="#5e92b2" stroke-width="1.51"/><path d="M246,2155L163,2256L510,2332Z" fill="#71bcbe" stroke="#71bcbe" stroke-width="1.51"/><path d="M510,2332L586,2583L851,2318Z" fill="#41a9c2" stroke="#41a9c2" stroke-width="1.51"/><path d="M-117,1798L246,2155L271,1723Z" fill="#8ecfbd" stroke="#8ecfbd" stroke-width="1.51"/><path d="M335,2650L586,2583L510,2332Z" fill="#54acbf" stroke="#54acbf" stroke-width="1.51"/><path d="M375,894L136,1306L556,1252Z" fill="#92d4ba" stroke="#92d4ba" stroke-width="1.51"/><path d="M239,1591L-117,1798L271,1723Z" fill="#96d3bb" stroke="#96d3bb" stroke-width="1.51"/><path d="M1131,2410L1531,2188L1143,2098Z" fill="#2e85b7" stroke="#2e85b7" stroke-width="1.51"/><path d="M1838,1858L1755,1502L1452,1605Z" fill="#4b76a5" stroke="#4b76a5" stroke-width="1.51"/><path d="M1517,2409L1531,2188L1131,2410Z" fill="#2d78b2" stroke="#2d78b2" stroke-width="1.51"/><path d="M891,2559L1236,2554L1131,2410Z" fill="#208cbe" stroke="#208cbe" stroke-width="1.51"/><path d="M919,2775L1236,2554L891,2559Z" fill="#1f8dbe" stroke="#1f8dbe" stroke-width="1.51"/><path d="M-170,1535L-117,1798L239,1591Z" fill="#a3d8ba" stroke="#a3d8ba" stroke-width="1.51"/><path d="M1452,1605L1589,1275L1210,1416Z" fill="#568ab0" stroke="#568ab0" stroke-width="1.51"/><path d="M1755,1502L1589,1275L1452,1605Z" fill="#577dab" stroke="#577dab" stroke-width="1.51"/><path d="M1531,2188L1746,2044L1428,1832Z" fill="#3b75ae" stroke="#3b75ae" stroke-width="1.51"/><path d="M1236,2554L1517,2409L1131,2410Z" fill="#267cb5" stroke="#267cb5" stroke-width="1.51"/><path d="M1697,2449L1746,2044L1531,2188Z" fill="#3469a8" stroke="#3469a8" stroke-width="1.51"/><path d="M586,2583L919,2775L891,2559Z" fill="#2f99bf" stroke="#2f99bf" stroke-width="1.51"/><path d="M163,2256L335,2650L510,2332Z" fill="#6ab6be" stroke="#6ab6be" stroke-width="1.51"/><path d="M40,2404L335,2650L163,2256Z" fill="#80bbbd" stroke="#80bbbd" stroke-width="1.51"/><path d="M-197,2089L40,2404L163,2256Z" fill="#93c8bc" stroke="#93c8bc" stroke-width="1.51"/><path d="M1838,1858L1452,1605L1428,1832Z" fill="#477aae" stroke="#477aae" stroke-width="1.51"/><path d="M682,1073L375,894L556,1252Z" fill="#86cebc" stroke="#86cebc" stroke-width="1.51"/><path d="M434,763L375,894L682,1073Z" fill="#94d3ba" stroke="#94d3ba" stroke-width="1.51"/><path d="M1049,766L682,1073L1008,1092Z" fill="#78bdbd" stroke="#78bdbd" stroke-width="1.51"/><path d="M770,2961L919,2775L586,2583Z" fill="#3396bd" stroke="#3396bd" stroke-width="1.51"/><path d="M1236,2554L1563,2556L1517,2409Z" fill="#2870b0" stroke="#2870b0" stroke-width="1.51"/><path d="M136,1306L-170,1535L239,1591Z" fill="#a3d9b9" stroke="#a3d9b9" stroke-width="1.51"/><path d="M-234,1250L-170,1535L136,1306Z" fill="#b2dfb7" stroke="#b2dfb7" stroke-width="1.51"/><path d="M1746,2044L1838,1858L1428,1832Z" fill="#3c72a8" stroke="#3c72a8" stroke-width="1.51"/><path d="M1262,1146L1320,883L1008,1092Z" fill="#70a5b6" stroke="#70a5b6" stroke-width="1.51"/><path d="M1441,850L1320,883L1262,1146Z" fill="#749ab1" stroke="#749ab1" stroke-width="1.51"/><path d="M1441,850L1262,1146L1589,1275Z" fill="#6c90ae" stroke="#6c90ae" stroke-width="1.51"/><path d="M-117,1798L-197,2089L246,2155Z" fill="#99cfbc" stroke="#99cfbc" stroke-width="1.51"/><path d="M-357,1772L-228,1952L-117,1798Z" fill="#aad9be" stroke="#aad9be" stroke-width="1.51"/><path d="M-228,1952L-197,2089L-117,1798Z" fill="#a5d5bc" stroke="#a5d5bc" stroke-width="1.51"/><path d="M1320,883L1049,766L1008,1092Z" fill="#79aeb9" stroke="#79aeb9" stroke-width="1.51"/><path d="M1755,1502L1696,1214L1589,1275Z" fill="#5a7ba3" stroke="#5a7ba3" stroke-width="1.51"/><path d="M1940,1228L1696,1214L1755,1502Z" fill="#547697" stroke="#547697" stroke-width="1.51"/><path d="M1517,2409L1697,2449L1531,2188Z" fill="#326aac" stroke="#326aac" stroke-width="1.51"/><path d="M2037,2021L1991,1711L1838,1858Z" fill="#31668c" stroke="#31668c" stroke-width="1.51"/><path d="M1373,2743L1563,2556L1236,2554Z" fill="#266fb0" stroke="#266fb0" stroke-width="1.51"/><path d="M375,894L18,1030L136,1306Z" fill="#acddb7" stroke="#acddb7" stroke-width="1.51"/><path d="M652,699L434,763L682,1073Z" fill="#90d1bb" stroke="#90d1bb" stroke-width="1.51"/><path d="M335,2650L462,2822L586,2583Z" fill="#57a6bc" stroke="#57a6bc" stroke-width="1.51"/><path d="M137,2723L462,2822L335,2650Z" fill="#6baab9" stroke="#6baab9" stroke-width="1.51"/><path d="M192,850L18,1030L375,894Z" fill="#b2e0b7" stroke="#b2e0b7" stroke-width="1.51"/><path d="M18,1030L-80,1141L136,1306Z" fill="#b4e0b6" stroke="#b4e0b6" stroke-width="1.51"/><path d="M1049,766L652,699L682,1073Z" fill="#84c8bd" stroke="#84c8bd" stroke-width="1.51"/><path d="M1563,2556L1697,2449L1517,2409Z" fill="#2d66ab" stroke="#2d66ab" stroke-width="1.51"/><path d="M919,2775L1373,2743L1236,2554Z" fill="#227db7" stroke="#227db7" stroke-width="1.51"/><path d="M1563,2556L1778,2509L1697,2449Z" fill="#2a60a4" stroke="#2a60a4" stroke-width="1.51"/><path d="M1161,3179L1373,2743L919,2775Z" fill="#2376b4" stroke="#2376b4" stroke-width="1.51"/><path d="M434,763L192,850L375,894Z" fill="#a7dcb8" stroke="#a7dcb8" stroke-width="1.51"/><path d="M1696,1214L1441,850L1589,1275Z" fill="#6b85aa" stroke="#6b85aa" stroke-width="1.51"/><path d="M1320,883L1405,762L1049,766Z" fill="#7fa4b3" stroke="#7fa4b3" stroke-width="1.51"/><path d="M40,2404L24,2607L335,2650Z" fill="#84babb" stroke="#84babb" stroke-width="1.51"/><path d="M-336,2274L24,2607L40,2404Z" fill="#97c4bb" stroke="#97c4bb" stroke-width="1.51"/><path d="M24,2607L137,2723L335,2650Z" fill="#80b3b9" stroke="#80b3b9" stroke-width="1.51"/><path d="M-170,1535L-357,1772L-117,1798Z" fill="#aedbbc" stroke="#aedbbc" stroke-width="1.51"/><path d="M-228,1952L-336,2274L-197,2089Z" fill="#a5d2c0" stroke="#a5d2c0" stroke-width="1.51"/><path d="M-197,2089L-336,2274L40,2404Z" fill="#9fcbbb" stroke="#9fcbbb" stroke-width="1.51"/><path d="M-471,1458L-357,1772L-170,1535Z" fill="#b5dfc2" stroke="#b5dfc2" stroke-width="1.51"/><path d="M-80,1141L-234,1250L136,1306Z" fill="#b6e1b6" stroke="#b6e1b6" stroke-width="1.51"/><path d="M-472,949L-234,1250L-80,1141Z" fill="#c7e8ba" stroke="#c7e8ba" stroke-width="1.51"/><path d="M-267,753L-80,1141L18,1030Z" fill="#c7e8b5" stroke="#c7e8b5" stroke-width="1.51"/><path d="M604,3061L770,2961L462,2822Z" fill="#4695b8" stroke="#4695b8" stroke-width="1.51"/><path d="M462,2822L770,2961L586,2583Z" fill="#469cbc" stroke="#469cbc" stroke-width="1.51"/><path d="M1838,1858L1991,1711L1755,1502Z" fill="#3f6c93" stroke="#3f6c93" stroke-width="1.51"/><path d="M2037,2021L1838,1858L1746,2044Z" fill="#306693" stroke="#306693" stroke-width="1.51"/><path d="M1441,850L1405,762L1320,883Z" fill="#7c99af" stroke="#7c99af" stroke-width="1.51"/><path d="M1049,766L757,464L652,699Z" fill="#8fcabc" stroke="#8fcabc" stroke-width="1.51"/><path d="M1684,802L1405,762L1441,850Z" fill="#7e90ab" stroke="#7e90ab" stroke-width="1.51"/><path d="M192,850L118,799L18,1030Z" fill="#bee5b5" stroke="#bee5b5" stroke-width="1.51"/><path d="M249,547L118,799L192,850Z" fill="#bee5b5" stroke="#bee5b5" stroke-width="1.51"/><path d="M249,547L192,850L434,763Z" fill="#b3e1b6" stroke="#b3e1b6" stroke-width="1.51"/><path d="M1697,2449L2134,2373L1746,2044Z" fill="#275e93" stroke="#275e93" stroke-width="1.51"/><path d="M1760,2791L1778,2509L1563,2556Z" fill="#275ba0" stroke="#275ba0" stroke-width="1.51"/><path d="M24,2607L59,2862L137,2723Z" fill="#89b3b8" stroke="#89b3b8" stroke-width="1.51"/><path d="M-357,1772L-336,2274L-228,1952Z" fill="#a7d5c3" stroke="#a7d5c3" stroke-width="1.51"/><path d="M2134,2373L2037,2021L1746,2044Z" fill="#275f8c" stroke="#275f8c" stroke-width="1.51"/><path d="M1696,1214L1805,984L1441,850Z" fill="#7082a6" stroke="#7082a6" stroke-width="1.51"/><path d="M2159,1387L1940,1228L1755,1502Z" fill="#496e89" stroke="#496e89" stroke-width="1.51"/><path d="M2159,1387L1755,1502L1991,1711Z" fill="#426c8a" stroke="#426c8a" stroke-width="1.51"/><path d="M1940,1228L1805,984L1696,1214Z" fill="#5e7894" stroke="#5e7894" stroke-width="1.51"/><path d="M770,2961L928,3073L919,2775Z" fill="#2e88b9" stroke="#2e88b9" stroke-width="1.51"/><path d="M418,3230L604,3061L462,2822Z" fill="#5395b5" stroke="#5395b5" stroke-width="1.51"/><path d="M604,3061L928,3073L770,2961Z" fill="#358ab8" stroke="#358ab8" stroke-width="1.51"/><path d="M1373,2743L1509,2899L1563,2556Z" fill="#2863ab" stroke="#2863ab" stroke-width="1.51"/><path d="M137,2723L184,2996L462,2822Z" fill="#72a7b7" stroke="#72a7b7" stroke-width="1.51"/><path d="M-122,2880L59,2862L24,2607Z" fill="#8fb3b6" stroke="#8fb3b6" stroke-width="1.51"/><path d="M1385,580L1116,513L1049,766Z" fill="#89aeb5" stroke="#89aeb5" stroke-width="1.51"/><path d="M463,315L249,547L434,763Z" fill="#afdeb7" stroke="#afdeb7" stroke-width="1.51"/><path d="M1385,580L1049,766L1405,762Z" fill="#84a4b2" stroke="#84a4b2" stroke-width="1.51"/><path d="M1398,3132L1509,2899L1373,2743Z" fill="#255fa9" stroke="#255fa9" stroke-width="1.51"/><path d="M1805,984L1684,802L1441,850Z" fill="#7886a6" stroke="#7886a6" stroke-width="1.51"/><path d="M-357,1772L-487,2542L-336,2274Z" fill="#a6d0c8" stroke="#a6d0c8" stroke-width="1.51"/><path d="M-234,1250L-471,1458L-170,1535Z" fill="#b9e1be" stroke="#b9e1be" stroke-width="1.51"/><path d="M-472,949L-471,1458L-234,1250Z" fill="#c5e7c3" stroke="#c5e7c3" stroke-width="1.51"/><path d="M1116,513L757,464L1049,766Z" fill="#8dc0bb" stroke="#8dc0bb" stroke-width="1.51"/><path d="M1684,802L1385,580L1405,762Z" fill="#8494ab" stroke="#8494ab" stroke-width="1.51"/><path d="M118,799L-165,661L18,1030Z" fill="#c9e9b5" stroke="#c9e9b5" stroke-width="1.51"/><path d="M463,315L434,763L652,699Z" fill="#a3d8b9" stroke="#a3d8b9" stroke-width="1.51"/><path d="M59,2862L184,2996L137,2723Z" fill="#84acb5" stroke="#84acb5" stroke-width="1.51"/><path d="M1778,2509L2134,2373L1697,2449Z" fill="#215991" stroke="#215991" stroke-width="1.51"/><path d="M1509,2899L1760,2791L1563,2556Z" fill="#2a5aa6" stroke="#2a5aa6" stroke-width="1.51"/><path d="M2037,2021L2159,1387L1991,1711Z" fill="#3a698b" stroke="#3a698b" stroke-width="1.51"/><path d="M1940,1228L2143,1103L1805,984Z" fill="#5a7388" stroke="#5a7388" stroke-width="1.51"/><path d="M1805,984L2020,660L1684,802Z" fill="#707d91" stroke="#707d91" stroke-width="1.51"/><path d="M-487,2542L-122,2880L24,2607Z" fill="#9cbcb8" stroke="#9cbcb8" stroke-width="1.51"/><path d="M59,2862L-54,3055L184,2996Z" fill="#88a9b3" stroke="#88a9b3" stroke-width="1.51"/><path d="M1509,2899L1791,3203L1760,2791Z" fill="#254d9b" stroke="#254d9b" stroke-width="1.51"/><path d="M928,3073L1161,3179L919,2775Z" fill="#247db7" stroke="#247db7" stroke-width="1.51"/><path d="M875,3286L1161,3179L928,3073Z" fill="#2778b4" stroke="#2778b4" stroke-width="1.51"/><path d="M875,3286L928,3073L604,3061Z" fill="#3384b6" stroke="#3384b6" stroke-width="1.51"/><path d="M2118,2661L2134,2373L1778,2509Z" fill="#1b558a" stroke="#1b558a" stroke-width="1.51"/><path d="M2037,2021L2134,2373L2159,1387Z" fill="#2d658d" stroke="#2d658d" stroke-width="1.51"/><path d="M1161,3179L1398,3132L1373,2743Z" fill="#2363ab" stroke="#2363ab" stroke-width="1.51"/><path d="M36,410L-165,661L118,799Z" fill="#d2edb4" stroke="#d2edb4" stroke-width="1.51"/><path d="M-165,661L-267,753L18,1030Z" fill="#d2edb4" stroke="#d2edb4" stroke-width="1.51"/><path d="M184,2996L418,3230L462,2822Z" fill="#659bb5" stroke="#659bb5" stroke-width="1.51"/><path d="M346,3336L418,3230L176,3351Z" fill="#6b92af" stroke="#6b92af" stroke-width="1.51"/><path d="M-471,1458L-487,2542L-357,1772Z" fill="#acdacb" stroke="#acdacb" stroke-width="1.51"/><path d="M-336,2274L-487,2542L24,2607Z" fill="#9fc5bf" stroke="#9fc5bf" stroke-width="1.51"/><path d="M1530,383L1288,330L1385,580Z" fill="#8d9eae" stroke="#8d9eae" stroke-width="1.51"/><path d="M2159,1387L2143,1103L1940,1228Z" fill="#517089" stroke="#517089" stroke-width="1.51"/><path d="M418,3230L875,3286L604,3061Z" fill="#448ab4" stroke="#448ab4" stroke-width="1.51"/><path d="M1161,3179L1351,3451L1398,3132Z" fill="#245ba7" stroke="#245ba7" stroke-width="1.51"/><path d="M249,547L36,410L118,799Z" fill="#c9e9b4" stroke="#c9e9b4" stroke-width="1.51"/><path d="M757,464L463,315L652,699Z" fill="#9fd5bb" stroke="#9fd5bb" stroke-width="1.51"/><path d="M842,199L463,315L757,464Z" fill="#a0d5bb" stroke="#a0d5bb" stroke-width="1.51"/><path d="M842,199L757,464L1116,513Z" fill="#96c7bb" stroke="#96c7bb" stroke-width="1.51"/><path d="M-267,753L-472,949L-80,1141Z" fill="#d0ecba" stroke="#d0ecba" stroke-width="1.51"/><path d="M-471,1458L-472,949L-487,2542Z" fill="#b6dfcc" stroke="#b6dfcc" stroke-width="1.51"/><path d="M-364,3076L-54,3055L-122,2880Z" fill="#99acb2" stroke="#99acb2" stroke-width="1.51"/><path d="M-122,2880L-54,3055L59,2862Z" fill="#90adb4" stroke="#90adb4" stroke-width="1.51"/><path d="M1385,580L1288,330L1116,513Z" fill="#8da8b2" stroke="#8da8b2" stroke-width="1.51"/><path d="M1530,383L1385,580L1684,802Z" fill="#8892a9" stroke="#8892a9" stroke-width="1.51"/><path d="M2027,2815L2118,2661L1778,2509Z" fill="#1a4f88" stroke="#1a4f88" stroke-width="1.51"/><path d="M2027,2815L1778,2509L1760,2791Z" fill="#1e518f" stroke="#1e518f" stroke-width="1.51"/><path d="M463,315L36,410L249,547Z" fill="#c2e6b5" stroke="#c2e6b5" stroke-width="1.51"/><path d="M-165,661L-412,569L-267,753Z" fill="#dff2b8" stroke="#dff2b8" stroke-width="1.51"/><path d="M-267,753L-412,569L-472,949Z" fill="#def2c0" stroke="#def2c0" stroke-width="1.51"/><path d="M1789,424L1530,383L1684,802Z" fill="#8689a2" stroke="#8689a2" stroke-width="1.51"/><path d="M1154,147L1116,513L1288,330Z" fill="#93b1b5" stroke="#93b1b5" stroke-width="1.51"/><path d="M1154,147L842,199L1116,513Z" fill="#96bfba" stroke="#96bfba" stroke-width="1.51"/><path d="M463,315L202,71L36,410Z" fill="#c9e9b5" stroke="#c9e9b5" stroke-width="1.51"/><path d="M2031,3012L2027,2815L1760,2791Z" fill="#194684" stroke="#194684" stroke-width="1.51"/><path d="M176,3351L418,3230L184,2996Z" fill="#7298b1" stroke="#7298b1" stroke-width="1.51"/><path d="M418,3230L836,3441L875,3286Z" fill="#3c83b3" stroke="#3c83b3" stroke-width="1.51"/><path d="M-487,2542L-488,2797L-122,2880Z" fill="#9fbbc2" stroke="#9fbbc2" stroke-width="1.51"/><path d="M-54,3055L176,3351L184,2996Z" fill="#85a1b0" stroke="#85a1b0" stroke-width="1.51"/><path d="M875,3286L836,3441L1161,3179Z" fill="#2c75b2" stroke="#2c75b2" stroke-width="1.51"/><path d="M1398,3132L1791,3203L1509,2899Z" fill="#2650a1" stroke="#2650a1" stroke-width="1.51"/><path d="M346,3336L836,3441L418,3230Z" fill="#5088b1" stroke="#5088b1" stroke-width="1.51"/><path d="M2143,1103L2020,660L1805,984Z" fill="#657788" stroke="#657788" stroke-width="1.51"/><path d="M1411,163L1154,147L1288,330Z" fill="#95a9b1" stroke="#95a9b1" stroke-width="1.51"/><path d="M1411,163L1288,330L1530,383Z" fill="#929ead" stroke="#929ead" stroke-width="1.51"/><path d="M2020,660L1789,424L1684,802Z" fill="#798091" stroke="#798091" stroke-width="1.51"/><path d="M346,3336L700,3647L836,3441Z" fill="#4880b0" stroke="#4880b0" stroke-width="1.51"/><path d="M-121,3417L176,3351L-54,3055Z" fill="#8c9dae" stroke="#8c9dae" stroke-width="1.51"/><path d="M842,199L431,105L463,315Z" fill="#acdbba" stroke="#acdbba" stroke-width="1.51"/><path d="M586,-97L431,105L842,199Z" fill="#addbbb" stroke="#addbbb" stroke-width="1.51"/><path d="M-308,258L-165,661L36,410Z" fill="#e0f3b2" stroke="#e0f3b2" stroke-width="1.51"/><path d="M-308,258L-412,569L-165,661Z" fill="#e5f5b9" stroke="#e5f5b9" stroke-width="1.51"/><path d="M1688,3401L1791,3203L1398,3132Z" fill="#26459c" stroke="#26459c" stroke-width="1.51"/><path d="M2027,2815L2031,3012L2118,2661Z" fill="#194885" stroke="#194885" stroke-width="1.51"/><path d="M1791,3203L2031,3012L1760,2791Z" fill="#1b4488" stroke="#1b4488" stroke-width="1.51"/><path d="M1788,272L1411,163L1530,383Z" fill="#9292a8" stroke="#9292a8" stroke-width="1.51"/><path d="M1110,-127L947,53L1154,147Z" fill="#9dbfbb" stroke="#9dbfbb" stroke-width="1.51"/><path d="M1154,147L947,53L842,199Z" fill="#9dc5bb" stroke="#9dc5bb" stroke-width="1.51"/><path d="M-488,2797L-364,3076L-122,2880Z" fill="#9db2bb" stroke="#9db2bb" stroke-width="1.51"/><path d="M836,3441L1351,3451L1161,3179Z" fill="#2767ad" stroke="#2767ad" stroke-width="1.51"/><path d="M2020,660L1954,414L1789,424Z" fill="#777e88" stroke="#777e88" stroke-width="1.51"/><path d="M1789,424L1788,272L1530,383Z" fill="#8a8a9e" stroke="#8a8a9e" stroke-width="1.51"/><path d="M1974,124L1954,414L2020,660Z" fill="#7a7e87" stroke="#7a7e87" stroke-width="1.51"/><path d="M1954,414L1788,272L1789,424Z" fill="#80828f" stroke="#80828f" stroke-width="1.51"/><path d="M431,105L202,71L463,315Z" fill="#bde4b6" stroke="#bde4b6" stroke-width="1.51"/><path d="M219,-35L202,71L431,105Z" fill="#c9e9b7" stroke="#c9e9b7" stroke-width="1.51"/><path d="M1656,3434L1688,3401L1398,3132Z" fill="#26469d" stroke="#26469d" stroke-width="1.51"/><path d="M1791,3203L2013,3340L2031,3012Z" fill="#163a7e" stroke="#163a7e" stroke-width="1.51"/><path d="M202,71L-168,213L36,410Z" fill="#dcf2b3" stroke="#dcf2b3" stroke-width="1.51"/><path d="M1351,3451L1656,3434L1398,3132Z" fill="#264da0" stroke="#264da0" stroke-width="1.51"/><path d="M836,3441L1048,3694L1351,3451Z" fill="#2964ac" stroke="#2964ac" stroke-width="1.51"/><path d="M1351,3451L1623,3638L1656,3434Z" fill="#26429b" stroke="#26429b" stroke-width="1.51"/><path d="M435,3708L700,3647L346,3336Z" fill="#5681ad" stroke="#5681ad" stroke-width="1.51"/><path d="M435,3708L346,3336L81,3621Z" fill="#6f8aab" stroke="#6f8aab" stroke-width="1.51"/><path d="M-364,3076L-121,3417L-54,3055Z" fill="#98a5ae" stroke="#98a5ae" stroke-width="1.51"/><path d="M-214,-60L-308,258L-168,213Z" fill="#eef8b4" stroke="#eef8b4" stroke-width="1.51"/><path d="M-168,213L-308,258L36,410Z" fill="#e5f4b2" stroke="#e5f4b2" stroke-width="1.51"/><path d="M947,53L586,-97L842,199Z" fill="#a4d2bd" stroke="#a4d2bd" stroke-width="1.51"/><path d="M202,71L-214,-60L-168,213Z" fill="#e6f5b3" stroke="#e6f5b3" stroke-width="1.51"/><path d="M670,-254L586,-97L947,53Z" fill="#a8d7c2" stroke="#a8d7c2" stroke-width="1.51"/><path d="M1300,-71L1154,147L1411,163Z" fill="#99aab2" stroke="#99aab2" stroke-width="1.51"/><path d="M471,-143L219,-35L431,105Z" fill="#c0e5ba" stroke="#c0e5ba" stroke-width="1.51"/><path d="M700,3647L1048,3694L836,3441Z" fill="#3671ae" stroke="#3671ae" stroke-width="1.51"/><path d="M1542,-222L1300,-71L1411,163Z" fill="#9aa1b1" stroke="#9aa1b1" stroke-width="1.51"/><path d="M1300,-71L1110,-127L1154,147Z" fill="#9cb4b8" stroke="#9cb4b8" stroke-width="1.51"/><path d="M81,3621L346,3336L176,3351Z" fill="#7991ac" stroke="#7991ac" stroke-width="1.51"/><path d="M1007,4061L1171,3736L1048,3694Z" fill="#285ca3" stroke="#285ca3" stroke-width="1.51"/><path d="M670,-254L471,-143L586,-97Z" fill="#b3dec2" stroke="#b3dec2" stroke-width="1.51"/><path d="M586,-97L471,-143L431,105Z" fill="#b7e0bc" stroke="#b7e0bc" stroke-width="1.51"/><path d="M2031,3012L2013,3340L2118,2661Z" fill="#174181" stroke="#174181" stroke-width="1.51"/><path d="M1688,3401L2013,3340L1791,3203Z" fill="#1c3a86" stroke="#1c3a86" stroke-width="1.51"/><path d="M1998,3592L2013,3340L1688,3401Z" fill="#19337d" stroke="#19337d" stroke-width="1.51"/><path d="M1998,3592L1688,3401L1656,3434Z" fill="#1e3789" stroke="#1e3789" stroke-width="1.51"/><path d="M-121,3417L81,3621L176,3351Z" fill="#8895ab" stroke="#8895ab" stroke-width="1.51"/><path d="M1048,3694L1171,3736L1351,3451Z" fill="#2858a6" stroke="#2858a6" stroke-width="1.51"/><path d="M1377,3923L1171,3736L1007,4061Z" fill="#25519a" stroke="#25519a" stroke-width="1.51"/><path d="M-364,3076L-424,3371L-121,3417Z" fill="#9ba2b4" stroke="#9ba2b4" stroke-width="1.51"/><path d="M-121,3417L-100,3698L81,3621Z" fill="#8f93a9" stroke="#8f93a9" stroke-width="1.51"/><path d="M-488,2797L-424,3371L-364,3076Z" fill="#9eacbf" stroke="#9eacbf" stroke-width="1.51"/><path d="M1171,3736L1623,3638L1351,3451Z" fill="#264a9e" stroke="#264a9e" stroke-width="1.51"/><path d="M1199,-376L890,-320L1110,-127Z" fill="#a0c0c5" stroke="#a0c0c5" stroke-width="1.51"/><path d="M1788,272L1718,-29L1411,163Z" fill="#958fa5" stroke="#958fa5" stroke-width="1.51"/><path d="M1954,414L1974,124L1788,272Z" fill="#808189" stroke="#808189" stroke-width="1.51"/><path d="M2148,-283L1974,124L2020,660Z" fill="#818086" stroke="#818086" stroke-width="1.51"/><path d="M1938,6L1718,-29L1788,272Z" fill="#8b8792" stroke="#8b8792" stroke-width="1.51"/><path d="M890,-320L670,-254L947,53Z" fill="#a5d1c4" stroke="#a5d1c4" stroke-width="1.51"/><path d="M66,-380L-214,-60L219,-35Z" fill="#e4f5ba" stroke="#e4f5ba" stroke-width="1.51"/><path d="M890,-320L947,53L1110,-127Z" fill="#a1c7c2" stroke="#a1c7c2" stroke-width="1.51"/><path d="M1199,-376L1110,-127L1300,-71Z" fill="#9eb3bd" stroke="#9eb3bd" stroke-width="1.51"/><path d="M1718,-29L1542,-222L1411,163Z" fill="#9996ad" stroke="#9996ad" stroke-width="1.51"/><path d="M1974,124L1938,6L1788,272Z" fill="#848289" stroke="#848289" stroke-width="1.51"/><path d="M513,-461L471,-143L670,-254Z" fill="#b6e0c5" stroke="#b6e0c5" stroke-width="1.51"/><path d="M66,-380L219,-35L471,-143Z" fill="#d0ecbe" stroke="#d0ecbe" stroke-width="1.51"/><path d="M219,-35L-214,-60L202,71Z" fill="#dff2b7" stroke="#dff2b7" stroke-width="1.51"/><path d="M-308,258L-422,-227L-412,569Z" fill="#f0f9be" stroke="#f0f9be" stroke-width="1.51"/><path d="M813,4010L1048,3694L700,3647Z" fill="#366aa9" stroke="#366aa9" stroke-width="1.51"/><path d="M81,3621L268,3972L435,3708Z" fill="#7183a6" stroke="#7183a6" stroke-width="1.51"/><path d="M-359,3727L-100,3698L-121,3417Z" fill="#9795a8" stroke="#9795a8" stroke-width="1.51"/><path d="M1787,-333L1542,-222L1718,-29Z" fill="#968fa9" stroke="#968fa9" stroke-width="1.51"/><path d="M1874,3764L1998,3592L1623,3638Z" fill="#1c2e80" stroke="#1c2e80" stroke-width="1.51"/><path d="M1623,3638L1998,3592L1656,3434Z" fill="#203589" stroke="#203589" stroke-width="1.51"/><path d="M2013,3340L2102,4177L2118,2661Z" fill="#17347b" stroke="#17347b" stroke-width="1.51"/><path d="M1436,-333L1199,-376L1300,-71Z" fill="#9caabb" stroke="#9caabb" stroke-width="1.51"/><path d="M1171,3736L1377,3923L1623,3638Z" fill="#25449a" stroke="#25449a" stroke-width="1.51"/><path d="M813,4010L700,3647L435,3708Z" fill="#4575a9" stroke="#4575a9" stroke-width="1.51"/><path d="M1542,-222L1436,-333L1300,-71Z" fill="#9ba1b6" stroke="#9ba1b6" stroke-width="1.51"/><path d="M1787,-333L1436,-333L1542,-222Z" fill="#9b95b4" stroke="#9b95b4" stroke-width="1.51"/><path d="M316,4010L813,4010L435,3708Z" fill="#4f76a1" stroke="#4f76a1" stroke-width="1.51"/><path d="M1743,4061L1874,3764L1623,3638Z" fill="#1d2e83" stroke="#1d2e83" stroke-width="1.51"/><path d="M-155,3842L268,3972L81,3621Z" fill="#8489a3" stroke="#8489a3" stroke-width="1.51"/><path d="M-100,3698L-155,3842L81,3621Z" fill="#8f8ea6" stroke="#8f8ea6" stroke-width="1.51"/><path d="M-424,3371L-359,3727L-121,3417Z" fill="#9a9ab1" stroke="#9a9ab1" stroke-width="1.51"/><path d="M890,-320L513,-461L670,-254Z" fill="#addac9" stroke="#addac9" stroke-width="1.51"/><path d="M1199,-376L513,-461L890,-320Z" fill="#a7d0ca" stroke="#a7d0ca" stroke-width="1.51"/><path d="M-359,3727L-155,3842L-100,3698Z" fill="#978fa6" stroke="#978fa6" stroke-width="1.51"/><path d="M49,4086L316,4010L268,3972Z" fill="#6f7f98" stroke="#6f7f98" stroke-width="1.51"/><path d="M268,3972L316,4010L435,3708Z" fill="#637d9f" stroke="#637d9f" stroke-width="1.51"/><path d="M813,4010L1007,4061L1048,3694Z" fill="#2b62a1" stroke="#2b62a1" stroke-width="1.51"/><path d="M1377,3923L1743,4061L1623,3638Z" fill="#22358e" stroke="#22358e" stroke-width="1.51"/><path d="M1116,4266L1007,4061L773,4326Z" fill="#235a91" stroke="#235a91" stroke-width="1.51"/><path d="M513,-461L66,-380L471,-143Z" fill="#c7e8c4" stroke="#c7e8c4" stroke-width="1.51"/><path d="M1199,-376L1787,-333L513,-461Z" fill="#a0b8c5" stroke="#a0b8c5" stroke-width="1.51"/><path d="M1436,-333L1787,-333L1199,-376Z" fill="#9d9eb9" stroke="#9d9eb9" stroke-width="1.51"/><path d="M1938,6L1787,-333L1718,-29Z" fill="#8d8899" stroke="#8d8899" stroke-width="1.51"/><path d="M-194,-449L-422,-227L-214,-60Z" fill="#f5fbc3" stroke="#f5fbc3" stroke-width="1.51"/><path d="M-214,-60L-422,-227L-308,258Z" fill="#f3fabe" stroke="#f3fabe" stroke-width="1.51"/><path d="M-412,569L-446,-305L-472,949Z" fill="#ebf8c3" stroke="#ebf8c3" stroke-width="1.51"/><path d="M1007,4061L1419,4067L1377,3923Z" fill="#204892" stroke="#204892" stroke-width="1.51"/><path d="M316,4010L505,4225L813,4010Z" fill="#487198" stroke="#487198" stroke-width="1.51"/><path d="M1329,4271L1506,4184L1419,4067Z" fill="#1b3984" stroke="#1b3984" stroke-width="1.51"/><path d="M-155,3842L49,4086L268,3972Z" fill="#80859a" stroke="#80859a" stroke-width="1.51"/><path d="M-175,4307L49,4086L-155,3842Z" fill="#858694" stroke="#858694" stroke-width="1.51"/><path d="M-194,-449L-446,-305L-422,-227Z" fill="#f9fdcb" stroke="#f9fdcb" stroke-width="1.51"/><path d="M-422,-227L-446,-305L-412,569Z" fill="#f6fcc4" stroke="#f6fcc4" stroke-width="1.51"/><path d="M-194,-449L-214,-60L66,-380Z" fill="#eff9bf" stroke="#eff9bf" stroke-width="1.51"/><path d="M513,-461L-194,-449L66,-380Z" fill="#e1f3c4" stroke="#e1f3c4" stroke-width="1.51"/><path d="M49,4086L505,4225L316,4010Z" fill="#637a94" stroke="#637a94" stroke-width="1.51"/><path d="M1419,4067L1743,4061L1377,3923Z" fill="#1f3689" stroke="#1f3689" stroke-width="1.51"/><path d="M1874,3764L1968,3963L1998,3592Z" fill="#162773" stroke="#162773" stroke-width="1.51"/><path d="M1506,4184L1743,4061L1419,4067Z" fill="#1d3284" stroke="#1d3284" stroke-width="1.51"/><path d="M1743,4061L1968,3963L1874,3764Z" fill="#162772" stroke="#162772" stroke-width="1.51"/><path d="M1998,3592L2102,4177L2013,3340Z" fill="#172976" stroke="#172976" stroke-width="1.51"/><path d="M1938,6L2148,-283L1787,-333Z" fill="#86838f" stroke="#86838f" stroke-width="1.51"/><path d="M1974,124L2148,-283L1938,6Z" fill="#85828b" stroke="#85828b" stroke-width="1.51"/><path d="M2143,1103L2148,-283L2020,660Z" fill="#777d87" stroke="#777d87" stroke-width="1.51"/><path d="M2159,1387L2148,-283L2143,1103Z" fill="#6f7b87" stroke="#6f7b87" stroke-width="1.51"/><path d="M1743,4061L2102,4177L1968,3963Z" fill="#0f2265" stroke="#0f2265" stroke-width="1.51"/><path d="M1116,4266L1419,4067L1007,4061Z" fill="#1f4c8f" stroke="#1f4c8f" stroke-width="1.51"/><path d="M773,4326L1007,4061L813,4010Z" fill="#2b6296" stroke="#2b6296" stroke-width="1.51"/><path d="M-175,4307L773,4326L505,4225Z" fill="#54738b" stroke="#54738b" stroke-width="1.51"/><path d="M-359,3727L-462,3969L-155,3842Z" fill="#968fa9" stroke="#968fa9" stroke-width="1.51"/><path d="M-424,3371L-462,3969L-359,3727Z" fill="#9c94b5" stroke="#9c94b5" stroke-width="1.51"/><path d="M-488,2797L-462,3969L-424,3371Z" fill="#9ea0bc" stroke="#9ea0bc" stroke-width="1.51"/><path d="M1506,4184L1713,4183L1743,4061Z" fill="#1a2b7c" stroke="#1a2b7c" stroke-width="1.51"/><path d="M1116,4266L1329,4271L1419,4067Z" fill="#1b4287" stroke="#1b4287" stroke-width="1.51"/><path d="M1116,4266L773,4326L1329,4271Z" fill="#1c518b" stroke="#1c518b" stroke-width="1.51"/><path d="M505,4225L773,4326L813,4010Z" fill="#356a94" stroke="#356a94" stroke-width="1.51"/><path d="M-175,4307L505,4225L49,4086Z" fill="#737e8e" stroke="#737e8e" stroke-width="1.51"/><path d="M1329,4271L1713,4183L1506,4184Z" fill="#1a337f" stroke="#1a337f" stroke-width="1.51"/><path d="M-462,3969L-175,4307L-155,3842Z" fill="#8f899a" stroke="#8f899a" stroke-width="1.51"/><path d="M-462,3969L-470,4180L-175,4307Z" fill="#8d889b" stroke="#8d889b" stroke-width="1.51"/><path d="M-488,2797L-470,4180L-462,3969Z" fill="#9d96b9" stroke="#9d96b9" stroke-width="1.51"/><path d="M1329,4271L2102,4177L1713,4183Z" fill="#162773" stroke="#162773" stroke-width="1.51"/><path d="M1713,4183L2102,4177L1743,4061Z" fill="#112469" stroke="#112469" stroke-width="1.51"/><path d="M1968,3963L2102,4177L1998,3592Z" fill="#13256d" stroke="#13256d" stroke-width="1.51"/><path d="M2118,2661L2102,4177L2134,2373Z" fill="#173f80" stroke="#173f80" stroke-width="1.51"/><path d="M2134,2373L2102,4177L2159,1387Z" fill="#1a5088" stroke="#1a5088" stroke-width="1.51"/></svg>